<svg id="svg" xmlns="http://www.w3.org/2000/svg" xmlns:xlink="http://www.w3.org/1999/xlink" width="400" height="400" viewBox="0, 0, 400,400"><g id="svgg"><path id="path0" d="M266.932 0.230 C 266.806 0.357,262.804 1.237,258.041 2.185 C 230.676 7.633,205.185 25.437,193.915 46.971 C 191.341 51.891,191.027 51.612,199.132 51.617 C 216.160 51.626,228.751 57.428,238.771 69.882 C 242.451 74.458,247.036 83.375,245.708 83.375 C 220.112 83.375,202.788 92.842,184.864 116.625 C 143.689 171.261,84.819 219.113,36.434 237.276 C 33.506 238.375,32.608 239.270,30.017 243.672 C 26.542 249.578,19.699 258.245,13.846 264.155 C 8.210 269.846,8.107 269.990,9.861 269.695 C 35.106 265.451,83.403 238.651,122.318 207.292 C 150.508 184.577,175.287 159.210,196.676 131.173 C 214.736 107.499,223.882 101.737,243.402 101.737 C 249.407 101.737,249.700 103.117,246.434 116.004 C 232.129 172.434,189.436 216.207,134.993 230.263 C 128.138 232.033,128.458 231.851,119.288 239.196 C 115.703 242.067,109.897 246.200,106.386 248.380 C 102.875 250.559,99.332 252.959,98.513 253.712 L 97.022 255.082 99.752 254.850 C 101.253 254.723,104.938 254.494,107.940 254.341 C 150.135 252.196,195.448 230.073,224.948 197.215 C 244.622 175.301,255.865 154.393,263.795 124.975 C 268.434 107.767,267.936 108.825,270.611 110.498 C 295.667 126.170,296.828 168.108,273.207 204.218 C 264.239 217.928,249.329 230.900,233.329 238.912 C 219.143 246.016,209.281 248.635,191.301 250.072 L 185.828 250.510 178.041 254.480 C 170.639 258.254,160.392 262.107,155.808 262.840 C 152.852 263.313,153.026 263.774,156.603 264.948 C 165.537 267.881,194.169 268.977,206.182 266.847 C 259.648 257.363,300.220 216.033,307.916 163.212 C 312.569 131.282,298.567 102.995,271.851 90.352 C 267.718 88.396,267.499 88.211,266.960 86.212 C 260.483 62.144,245.051 43.160,227.543 37.718 C 223.708 36.526,224.415 35.251,231.549 30.491 C 274.070 2.119,332.064 21.020,347.897 68.411 C 349.915 74.452,349.803 74.459,343.798 68.683 C 336.650 61.807,327.639 55.320,322.192 53.127 C 321.187 52.723,319.513 51.120,317.820 48.940 C 304.094 31.269,279.323 48.763,292.289 66.971 C 296.430 72.787,304.050 73.907,312.615 69.959 L 316.088 68.358 319.707 70.614 C 353.746 91.833,367.671 149.100,351.272 200.421 C 335.210 250.688,292.994 289.277,242.412 299.928 C 203.201 308.186,162.404 300.897,131.512 280.115 L 125.306 275.940 118.609 274.931 C 114.925 274.376,107.891 273.399,102.978 272.760 L 94.045 271.597 98.759 276.038 C 112.434 288.917,127.405 298.773,143.672 305.609 C 149.671 308.129,153.709 309.970,154.245 310.429 C 154.327 310.499,151.775 316.166,148.573 323.021 L 142.751 335.484 71.375 335.484 L 0.000 335.484 0.000 343.672 L 0.000 351.861 97.486 351.861 C 153.264 351.861,195.470 352.050,196.135 352.303 C 196.774 352.546,201.757 355.919,207.209 359.799 C 232.054 377.479,249.181 387.617,265.573 394.346 C 270.326 396.297,279.153 399.504,279.772 399.504 C 279.872 399.504,278.092 397.438,275.817 394.913 C 268.392 386.673,264.020 380.455,259.599 371.848 C 257.130 367.041,256.830 366.676,253.930 364.943 C 247.099 360.862,236.725 353.320,236.725 352.435 C 236.725 352.256,273.497 352.189,318.442 352.288 L 400.159 352.466 399.833 346.084 C 399.654 342.574,399.507 338.755,399.506 337.597 L 399.504 335.491 368.362 335.364 L 337.221 335.236 340.605 332.715 C 342.467 331.329,347.380 328.447,351.523 326.311 C 367.527 318.061,367.684 317.938,371.542 310.690 C 375.656 302.962,377.969 299.628,383.573 293.351 C 386.350 290.240,389.094 287.032,389.670 286.223 L 390.717 284.752 389.031 285.107 C 376.730 287.695,345.853 305.738,318.610 326.257 C 304.479 336.901,308.038 335.944,283.819 335.611 L 263.667 335.334 262.063 324.367 C 261.181 318.335,260.423 313.099,260.378 312.733 C 260.327 312.304,261.714 311.652,264.268 310.905 C 296.474 301.493,333.343 271.391,352.310 239.024 C 374.402 201.325,379.956 161.967,369.615 116.377 L 367.589 107.444 368.166 101.489 C 372.755 54.109,339.250 10.415,291.816 1.921 C 288.680 1.359,285.735 0.697,285.273 0.450 C 284.432 -0.000,267.367 -0.204,266.932 0.230 M180.149 316.851 C 201.846 320.598,215.093 320.765,237.172 317.573 C 240.831 317.044,243.914 316.701,244.024 316.811 C 244.260 317.047,247.097 335.177,246.927 335.363 C 246.863 335.432,227.485 335.432,203.866 335.363 L 160.921 335.236 165.655 325.165 C 170.212 315.470,170.437 315.104,171.671 315.351 C 172.376 315.492,176.191 316.167,180.149 316.851 " stroke="none" fill="#000000" fill-rule="evenodd"></path></g></svg>